<svg id="Capa_1" data-name="Capa 1" xmlns="http://www.w3.org/2000/svg" viewBox="0 0 294.86 242.98"><defs><style>.cls-1{fill:#fff;}</style></defs><path class="cls-1" d="M667,268.33,525.4,415l-87.73-84.71,13.92-14.41,71.41,69,55.24-57.22-60.39-58.32,13.92-14.4,60.39,58.32,58.52-60.61Z" transform="translate(-372.14 -171.99)"/><path class="cls-1" d="M490.19,193.46l37.3,36,47.68-49.38,16.31,15.76L449.88,342.49l-53.61-51.77q-23.94-23.12-24.13-45.82t22.93-46.65Q443.37,148.24,490.19,193.46Zm23.38,50.42-37.08-35.81q-30.3-29.25-64.68,6.34-16.37,17-16.84,31.86t15.43,30.25l37.08,35.81Z" transform="translate(-372.14 -171.99)"/></svg>